#Comment line ignore any data following # character 
#Hierarchical Translation and Rotation (.htr) file 
[Header]	
#Header keywords are followed by a single value 
FileType HTR		#Single word string
DataType HTRS		#Translation followed by rotation and scale data
FileVersion 1		#integer
NumSegments 84		#integer
NumFrames 2		#integer
DataFrameRate 30		#integer, data frame rate in this file
EulerRotationOrder ZYX
CalibrationUnits mm
RotationUnits Degrees
GlobalAxisofGravity Y
BoneLengthAxis Y
ScaleFactor 1.00
[SegmentNames&Hierarchy]
#CHILD	PARENT
MASTER GLOBAL
root MASTER
chest root
L_mid_tent01 root
R_mid_tent01 root
spine01 root
Bip01_Neck chest
L_humerus chest
R_humerus chest
weapon_bone chest
Bip01_Head Bip01_Neck
eye_left_bone Bip01_Head
eye_right_bone Bip01_Head
L_forearm L_humerus
L_front_hand L_forearm
L_weapon_bone L_forearm
L_front_hand01_01 L_front_hand
L_front_hand02_01 L_front_hand
L_front_hand03_01 L_front_hand
L_front_hand01_02 L_front_hand01_01
L_front_hand02_02 L_front_hand02_01
L_front_hand03_02 L_front_hand03_01
R_forearm R_humerus
R_front_hand R_forearm
R_weapon_bone R_forearm
R_front_hand01_01 R_front_hand
R_front_hand02_01 R_front_hand
R_front_hand03_01 R_front_hand
R_front_hand01_02 R_front_hand01_01
R_front_hand02_02 R_front_hand02_01
R_front_hand03_02 R_front_hand03_01
null_rope01_connect L_mid_tent01
Rope1_Seg01 null_rope01_connect
Rope1_Seg02 Rope1_Seg01
Rope1_Seg03 Rope1_Seg02
Rope1_Seg04 Rope1_Seg03
Rope1_Seg05 Rope1_Seg04
Rope1_Seg06 Rope1_Seg05
Rope1_Seg07 Rope1_Seg06
Rope1_Seg09 Rope1_Seg07
L_mid_hand01 Rope1_Seg09
L_mid_hand02 Rope1_Seg09
L_mid_hand03 Rope1_Seg09
null_rope02_connect R_mid_tent01
Rope2_Seg01 null_rope02_connect
Rope2_Seg02 Rope2_Seg01
Rope2_Seg03 Rope2_Seg02
Rope2_Seg04 Rope2_Seg03
Rope2_Seg05 Rope2_Seg04
Rope2_Seg06 Rope2_Seg05
Rope2_Seg07 Rope2_Seg06
Rope2_Seg09 Rope2_Seg07
R_mid_hand01 Rope2_Seg09
R_mid_hand02 Rope2_Seg09
R_mid_hand03 Rope2_Seg09
spine02 spine01
spine03 spine02
pelvis spine03
null_rope03_connect pelvis
null_rope04_connect pelvis
Rope3_Seg01 null_rope03_connect
Rope3_Seg02 Rope3_Seg01
Rope3_Seg03 Rope3_Seg02
Rope3_Seg04 Rope3_Seg03
Rope3_Seg05 Rope3_Seg04
Rope3_Seg06 Rope3_Seg05
Rope3_Seg07 Rope3_Seg06
Rope3_Seg08 Rope3_Seg07
Rope3_Seg09 Rope3_Seg08
R_rear_hand01 Rope3_Seg09
R_rear_hand02 Rope3_Seg09
R_rear_hand03 Rope3_Seg09
Rope4_Seg01 null_rope04_connect
Rope4_Seg02 Rope4_Seg01
Rope4_Seg03 Rope4_Seg02
Rope4_Seg04 Rope4_Seg03
Rope4_Seg05 Rope4_Seg04
Rope4_Seg06 Rope4_Seg05
Rope4_Seg07 Rope4_Seg06
Rope4_Seg08 Rope4_Seg07
Rope4_Seg09 Rope4_Seg08
L_rear_hand01 Rope4_Seg09
L_rear_hand02 Rope4_Seg09
L_rear_hand03 Rope4_Seg09
[BasePosition]
#SegmentName Tx, Ty, Tz, Rx, Ry, Rz, BoneLength
MASTER 0.000000 0.000000 0.000000 -90.000000 0.000000 0.000000 10.000000 
root 0.000000 0.000000 0.000000 0.000000 0.000000 0.000000 10.000000 
chest 0.000000 0.000000 0.000000 0.000000 0.000000 0.000000 10.000000 
L_mid_tent01 0.000000 0.000000 0.000000 0.000000 0.000000 0.000000 10.000000 
R_mid_tent01 0.000000 0.000000 0.000000 0.000000 0.000000 0.000000 10.000000 
spine01 0.000000 0.000000 0.000000 0.000000 0.000000 0.000000 10.000000 
Bip01_Neck 0.000000 0.000000 0.000000 0.000000 0.000000 0.000000 10.000000 
L_humerus 0.000000 0.000000 0.000000 0.000000 0.000000 0.000000 10.000000 
R_humerus 0.000000 0.000000 0.000000 0.000000 0.000000 0.000000 10.000000 
weapon_bone 0.000000 0.000000 0.000000 0.000000 0.000000 0.000000 10.000000 
Bip01_Head 0.000000 0.000000 0.000000 0.000000 0.000000 0.000000 10.000000 
eye_left_bone 0.000000 0.000000 0.000000 0.000000 0.000000 0.000000 10.000000 
eye_right_bone 0.000000 0.000000 0.000000 0.000000 0.000000 0.000000 10.000000 
L_forearm 0.000000 0.000000 0.000000 0.000000 0.000000 0.000000 10.000000 
L_front_hand 0.000000 0.000000 0.000000 0.000000 0.000000 0.000000 10.000000 
L_weapon_bone 0.000000 0.000000 0.000000 0.000000 0.000000 0.000000 10.000000 
L_front_hand01_01 0.000000 0.000000 0.000000 0.000000 0.000000 0.000000 10.000000 
L_front_hand02_01 0.000000 0.000000 0.000000 0.000000 0.000000 0.000000 10.000000 
L_front_hand03_01 0.000000 0.000000 0.000000 0.000000 0.000000 0.000000 10.000000 
L_front_hand01_02 0.000000 0.000000 0.000000 0.000000 0.000000 0.000000 10.000000 
L_front_hand02_02 0.000000 0.000000 0.000000 0.000000 0.000000 0.000000 10.000000 
L_front_hand03_02 0.000000 0.000000 0.000000 0.000000 0.000000 0.000000 10.000000 
R_forearm 0.000000 0.000000 0.000000 0.000000 0.000000 0.000000 10.000000 
R_front_hand 0.000000 0.000000 0.000000 0.000000 0.000000 0.000000 10.000000 
R_weapon_bone 0.000000 0.000000 0.000000 0.000000 0.000000 0.000000 10.000000 
R_front_hand01_01 0.000000 0.000000 0.000000 0.000000 0.000000 0.000000 10.000000 
R_front_hand02_01 0.000000 0.000000 0.000000 0.000000 0.000000 0.000000 10.000000 
R_front_hand03_01 0.000000 0.000000 0.000000 0.000000 0.000000 0.000000 10.000000 
R_front_hand01_02 0.000000 0.000000 0.000000 0.000000 0.000000 0.000000 10.000000 
R_front_hand02_02 0.000000 0.000000 0.000000 0.000000 0.000000 0.000000 10.000000 
R_front_hand03_02 0.000000 0.000000 0.000000 0.000000 0.000000 0.000000 10.000000 
null_rope01_connect 0.000000 0.000000 0.000000 0.000000 0.000000 0.000000 10.000000 
Rope1_Seg01 0.000000 0.000000 0.000000 0.000000 0.000000 0.000000 10.000000 
Rope1_Seg02 0.000000 0.000000 0.000000 0.000000 0.000000 0.000000 10.000000 
Rope1_Seg03 0.000000 0.000000 0.000000 0.000000 0.000000 0.000000 10.000000 
Rope1_Seg04 0.000000 0.000000 0.000000 0.000000 0.000000 0.000000 10.000000 
Rope1_Seg05 0.000000 0.000000 0.000000 0.000000 0.000000 0.000000 10.000000 
Rope1_Seg06 0.000000 0.000000 0.000000 0.000000 0.000000 0.000000 10.000000 
Rope1_Seg07 0.000000 0.000000 0.000000 0.000000 0.000000 0.000000 10.000000 
Rope1_Seg09 0.000000 0.000000 0.000000 0.000000 0.000000 0.000000 10.000000 
L_mid_hand01 0.000000 0.000000 0.000000 0.000000 0.000000 0.000000 10.000000 
L_mid_hand02 0.000000 0.000000 0.000000 0.000000 0.000000 0.000000 10.000000 
L_mid_hand03 0.000000 0.000000 0.000000 0.000000 0.000000 0.000000 10.000000 
null_rope02_connect 0.000000 0.000000 0.000000 0.000000 0.000000 0.000000 10.000000 
Rope2_Seg01 0.000000 0.000000 0.000000 0.000000 0.000000 0.000000 10.000000 
Rope2_Seg02 0.000000 0.000000 0.000000 0.000000 0.000000 0.000000 10.000000 
Rope2_Seg03 0.000000 0.000000 0.000000 0.000000 0.000000 0.000000 10.000000 
Rope2_Seg04 0.000000 0.000000 0.000000 0.000000 0.000000 0.000000 10.000000 
Rope2_Seg05 0.000000 0.000000 0.000000 0.000000 0.000000 0.000000 10.000000 
Rope2_Seg06 0.000000 0.000000 0.000000 0.000000 0.000000 0.000000 10.000000 
Rope2_Seg07 0.000000 0.000000 0.000000 0.000000 0.000000 0.000000 10.000000 
Rope2_Seg09 0.000000 0.000000 0.000000 0.000000 0.000000 0.000000 10.000000 
R_mid_hand01 0.000000 0.000000 0.000000 0.000000 0.000000 0.000000 10.000000 
R_mid_hand02 0.000000 0.000000 0.000000 0.000000 0.000000 0.000000 10.000000 
R_mid_hand03 0.000000 0.000000 0.000000 0.000000 0.000000 0.000000 10.000000 
spine02 0.000000 0.000000 0.000000 0.000000 0.000000 0.000000 10.000000 
spine03 0.000000 0.000000 0.000000 0.000000 0.000000 0.000000 10.000000 
pelvis 0.000000 0.000000 0.000000 0.000000 0.000000 0.000000 10.000000 
null_rope03_connect 0.000000 0.000000 0.000000 0.000000 0.000000 0.000000 10.000000 
null_rope04_connect 0.000000 0.000000 0.000000 0.000000 0.000000 0.000000 10.000000 
Rope3_Seg01 0.000000 0.000000 0.000000 0.000000 0.000000 0.000000 10.000000 
Rope3_Seg02 0.000000 0.000000 0.000000 0.000000 0.000000 0.000000 10.000000 
Rope3_Seg03 0.000000 0.000000 0.000000 0.000000 0.000000 0.000000 10.000000 
Rope3_Seg04 0.000000 0.000000 0.000000 0.000000 0.000000 0.000000 10.000000 
Rope3_Seg05 0.000000 0.000000 0.000000 0.000000 0.000000 0.000000 10.000000 
Rope3_Seg06 0.000000 0.000000 0.000000 0.000000 0.000000 0.000000 10.000000 
Rope3_Seg07 0.000000 0.000000 0.000000 0.000000 0.000000 0.000000 10.000000 
Rope3_Seg08 0.000000 0.000000 0.000000 0.000000 0.000000 0.000000 10.000000 
Rope3_Seg09 0.000000 0.000000 0.000000 0.000000 0.000000 0.000000 10.000000 
R_rear_hand01 0.000000 0.000000 0.000000 0.000000 0.000000 0.000000 10.000000 
R_rear_hand02 0.000000 0.000000 0.000000 0.000000 0.000000 0.000000 10.000000 
R_rear_hand03 0.000000 0.000000 0.000000 0.000000 0.000000 0.000000 10.000000 
Rope4_Seg01 0.000000 0.000000 0.000000 0.000000 0.000000 0.000000 10.000000 
Rope4_Seg02 0.000000 0.000000 0.000000 0.000000 0.000000 0.000000 10.000000 
Rope4_Seg03 0.000000 0.000000 0.000000 0.000000 0.000000 0.000000 10.000000 
Rope4_Seg04 0.000000 0.000000 0.000000 0.000000 0.000000 0.000000 10.000000 
Rope4_Seg05 0.000000 0.000000 0.000000 0.000000 0.000000 0.000000 10.000000 
Rope4_Seg06 0.000000 0.000000 0.000000 0.000000 0.000000 0.000000 10.000000 
Rope4_Seg07 0.000000 0.000000 0.000000 0.000000 0.000000 0.000000 10.000000 
Rope4_Seg08 0.000000 0.000000 0.000000 0.000000 0.000000 0.000000 10.000000 
Rope4_Seg09 0.000000 0.000000 0.000000 0.000000 0.000000 0.000000 10.000000 
L_rear_hand01 0.000000 0.000000 0.000000 0.000000 0.000000 0.000000 10.000000 
L_rear_hand02 0.000000 0.000000 0.000000 0.000000 0.000000 0.000000 10.000000 
L_rear_hand03 0.000000 0.000000 0.000000 0.000000 0.000000 0.000000 10.000000 
#Beginning of Data. Separated by tabs
#Fr	Tx	Ty	Tz	Rx	Ry	Rz	SF
[MASTER]
37 0.000003 -0.000013 -5068.536621 0.001660 0.001660 0.001660 5068.537109
38 0.000003 -0.000012 -5022.871094 0.001660 0.001660 0.001660 5022.871094
[root]
37 -16.502304 8.649304 1448.662354 -92.200745 -25.119734 -89.046532 1448.782227
38 -16.502304 8.965576 1448.510620 -92.006783 -19.605375 -89.225746 1448.632324
[chest]
37 -84.512650 -34.090519 0.000000 -2.309001 -0.814936 176.482178 91.129311
38 -84.512650 -34.090519 0.000000 -2.227859 -0.497590 173.108200 91.129311
[L_mid_tent01]
37 27.299213 22.178844 -249.918655 -17.012777 22.296474 32.070961 252.381622
38 27.299212 22.178858 -249.918671 -18.866051 18.481079 24.503571 252.381638
[R_mid_tent01]
37 23.228794 24.509907 226.238495 -170.608032 -30.186144 39.865696 228.744751
38 23.228794 24.509907 226.238495 -168.016312 -25.639679 33.440781 228.744751
[spine01]
37 -0.361383 -0.195265 0.000000 0.001899 0.001380 18.003748 0.410763
38 -0.361383 -0.195265 0.000000 0.001919 0.001352 19.673185 0.410763
[Bip01_Neck]
37 165.484543 71.581718 0.000119 176.643677 -1.657967 43.431911 180.302734
38 165.484543 71.581718 0.000119 176.643677 -1.657967 43.431911 180.302734
[L_humerus]
37 -13.983130 -135.272980 -120.471481 143.384583 79.222054 -126.856392 181.680161
38 -13.983130 -135.272980 -120.471481 49.112617 85.393089 138.550049 181.680161
[R_humerus]
37 -13.983309 -135.273102 125.287651 -176.451157 -77.097824 -88.452805 184.909012
38 -13.983309 -135.273102 125.287651 105.123222 -86.924385 -9.842269 184.909012
[weapon_bone]
37 235.964890 -300.705902 0.000000 0.000000 -89.951546 -128.212341 382.234833
38 235.964890 -300.705902 0.000000 0.000000 -89.951546 -128.212341 382.234833
[Bip01_Head]
37 213.444397 185.715515 11.776995 4.962491 2.797846 -43.898743 283.173920
38 213.444366 185.715500 11.776985 4.962490 2.797846 -43.898750 283.173859
[eye_left_bone]
37 -24.626970 125.451866 -64.772606 0.000000 -90.000000 -99.840431 143.318359
38 -24.626970 125.451866 -64.772606 0.000000 -90.000000 -99.840431 143.318359
[eye_right_bone]
37 -24.626970 125.451866 64.327362 0.000000 -89.965736 80.156380 143.117676
38 -24.626970 125.451866 64.327362 0.000000 -89.965736 80.156380 143.117676
[L_forearm]
37 322.776093 0.000000 -0.000119 0.000287 -0.002330 -104.032707 322.776093
38 322.776093 0.000000 -0.000119 0.000331 -0.002324 -106.194260 322.776093
[L_front_hand]
37 241.149185 -0.042021 -3.300071 -178.667953 -1.835447 -27.422350 241.171753
38 241.149185 -0.042021 -3.300071 -178.667953 -1.835447 -27.422350 241.171753
[L_weapon_bone]
37 156.183838 0.000000 0.000000 0.000014 0.000007 0.000001 156.183838
38 156.183838 0.000000 0.000000 0.000014 0.000007 0.000001 156.183838
[L_front_hand01_01]
37 86.095154 20.947098 -0.655860 -0.366594 -0.477154 75.385574 88.609184
38 86.095154 20.947098 -0.655860 -0.366594 -0.477154 75.385574 88.609184
[L_front_hand02_01]
37 86.935165 -11.437475 24.513514 154.399796 -59.883835 -61.369587 91.046425
38 86.935165 -11.437475 24.513514 154.399796 -59.883835 -61.369587 91.046425
[L_front_hand03_01]
37 86.637497 -14.123976 -20.424902 -153.913849 58.118122 -62.702866 90.126129
38 86.637497 -14.123976 -20.424902 -153.913849 58.118122 -62.702866 90.126129
[L_front_hand01_02]
37 71.020905 -0.000179 0.000030 0.000334 -0.002323 -106.379684 71.020905
38 71.020905 -0.000179 0.000030 0.000334 -0.002323 -106.379684 71.020905
[L_front_hand02_02]
37 71.020927 -0.000119 0.000060 0.000334 -0.002323 -106.379684 71.020927
38 71.020927 -0.000119 0.000060 0.000334 -0.002323 -106.379684 71.020927
[L_front_hand03_02]
37 71.020905 -0.000060 0.000060 0.000334 -0.002323 -106.379684 71.020905
38 71.020905 -0.000060 0.000060 0.000334 -0.002323 -106.379684 71.020905
[R_forearm]
37 322.776428 -0.000060 0.000030 0.206501 0.041609 -102.632759 322.776428
38 322.776428 -0.000060 0.000030 0.204773 0.052457 -104.808495 322.776428
[R_front_hand]
37 238.847015 -0.006795 2.210259 -2.635298 -10.645461 -26.312506 238.857239
38 238.847015 -0.006795 2.210259 -2.635298 -10.645461 -26.312506 238.857239
[R_weapon_bone]
37 155.664093 0.002503 -0.000030 0.003487 0.001180 -90.988930 155.664078
38 155.664093 0.002503 -0.000030 0.003487 0.001180 -90.988930 155.664078
[R_front_hand01_01]
37 87.624611 14.231146 22.918642 -154.633514 -59.950634 61.746063 91.683487
38 87.624611 14.231146 22.918642 -154.633499 -59.950619 61.746044 91.683487
[R_front_hand02_01]
37 89.356956 14.367283 -19.491137 154.602661 58.302849 63.744389 92.579636
38 89.356956 14.367283 -19.491137 154.602661 58.302849 63.744389 92.579636
[R_front_hand03_01]
37 87.286232 -22.307278 -0.143439 0.162155 -0.423168 -75.767921 90.091743
38 87.286232 -22.307278 -0.143439 0.162155 -0.423168 -75.767921 90.091743
[R_front_hand01_02]
37 71.020905 0.000060 0.000119 0.002323 -0.000334 106.381714 71.020905
38 71.020905 0.000060 0.000119 0.002323 -0.000334 106.381714 71.020905
[R_front_hand02_02]
37 71.020844 -0.000030 -0.000119 0.002323 -0.000334 106.381714 71.020836
38 71.020844 -0.000030 -0.000119 0.002323 -0.000334 106.381714 71.020836
[R_front_hand03_02]
37 71.020905 0.000000 0.000030 0.002323 -0.000334 106.381714 71.020905
38 71.020905 0.000000 0.000030 0.002323 -0.000334 106.381714 71.020905
[null_rope01_connect]
37 328.732483 0.000000 -0.000238 -138.340057 -60.772854 -141.625595 328.732483
38 328.732483 0.000000 -0.000238 -144.437622 -62.374969 -133.258148 328.732483
[Rope1_Seg01]
37 0.000062 -0.000042 0.000250 -44.368259 -26.195305 -137.246567 0.000261
38 0.000064 -0.000041 0.000257 26.682158 -17.335386 -123.172821 0.000268
[Rope1_Seg02]
37 139.999863 -0.000179 0.000000 51.563210 5.315506 12.681769 139.999863
38 139.999863 -0.000179 0.000000 23.798868 7.015922 0.266653 139.999863
[Rope1_Seg03]
37 139.999924 0.000060 -0.000060 26.810230 11.737286 3.232389 139.999924
38 139.999924 0.000060 -0.000060 3.353816 6.098237 -4.825589 139.999924
[Rope1_Seg04]
37 139.999924 -0.000060 -0.000119 24.286142 1.851915 10.212465 139.999924
38 139.999924 -0.000060 -0.000119 13.127216 5.507814 2.235803 139.999924
[Rope1_Seg05]
37 139.999832 0.000119 -0.000060 20.639027 4.177224 5.598108 139.999832
38 139.999832 0.000119 -0.000060 13.397015 4.087850 4.164904 139.999832
[Rope1_Seg06]
37 139.999954 0.000119 -0.000060 10.553624 3.435460 1.874388 139.999954
38 139.999954 0.000119 -0.000060 5.376053 2.554835 0.884298 139.999954
[Rope1_Seg07]
37 139.999985 0.000060 0.000000 2.655940 1.032731 0.337278 139.999985
38 139.999985 0.000060 0.000000 3.288066 1.755792 0.428130 139.999985
[Rope1_Seg09]
37 121.602913 0.000119 -0.000089 -89.793175 -1.359789 0.847147 121.602913
38 121.602913 0.000119 -0.000089 -89.793175 -1.359789 0.847147 121.602913
[L_mid_hand01]
37 103.859421 1.038730 8.195221 130.544373 -67.584534 -38.866943 104.187431
38 103.859421 1.038730 8.195221 130.544373 -67.584534 -38.866943 104.187431
[L_mid_hand02]
37 105.572853 -4.139662 -10.864139 -168.923172 43.409309 -73.498886 106.211075
38 105.572853 -4.139662 -10.864139 -168.923172 43.409321 -73.498909 106.211075
[L_mid_hand03]
37 104.641464 17.579376 -3.913581 -6.012627 17.808178 74.893677 106.179977
38 104.641464 17.579376 -3.913581 -6.012627 17.808174 74.893669 106.179977
[null_rope02_connect]
37 328.732849 0.000179 -0.000119 -120.092979 59.546013 -12.350111 328.732849
38 328.732849 0.000179 -0.000119 -126.993111 62.965458 -20.057905 328.732849
[Rope2_Seg01]
37 0.000080 0.000111 0.000000 61.005905 1.370694 -26.786341 0.000137
38 0.000084 0.000112 0.000000 51.526897 -1.688705 -33.309402 0.000140
[Rope2_Seg02]
37 139.999741 -0.000060 -0.000119 -30.844711 -12.457457 -6.491798 139.999756
38 139.999741 -0.000060 -0.000119 -35.387669 -8.759989 -8.454216 139.999756
[Rope2_Seg03]
37 140.000107 0.000030 0.000000 -25.308914 -3.563386 -9.694702 140.000107
38 140.000107 0.000030 0.000000 -13.674088 1.242136 -6.751266 140.000107
[Rope2_Seg04]
37 139.999802 0.000000 -0.000060 -16.085098 0.178572 -9.083599 139.999802
38 139.999802 0.000000 -0.000060 -12.164440 0.983728 -7.190451 139.999802
[Rope2_Seg05]
37 139.999985 -0.000060 0.000119 -30.752899 -3.967340 -24.002918 139.999985
38 139.999985 -0.000060 0.000119 -30.020788 -3.019468 -23.767656 139.999985
[Rope2_Seg06]
37 139.999893 -0.000030 -0.000119 -12.441350 6.432513 -18.343910 139.999893
38 139.999893 -0.000030 -0.000119 -11.434525 6.635371 -17.008953 139.999893
[Rope2_Seg07]
37 139.999893 0.000060 -0.000060 -2.806350 4.475858 -6.755925 139.999893
38 139.999893 0.000060 -0.000060 -2.676726 4.308293 -6.359622 139.999893
[Rope2_Seg09]
37 121.338966 0.000089 -0.000060 33.793236 -1.359788 -0.847141 121.338966
38 121.338966 0.000089 -0.000060 33.793236 -1.359788 -0.847141 121.338966
[R_mid_hand01]
37 104.680779 11.144459 -10.335981 -16.212063 45.237247 70.462852 105.778534
38 104.680779 11.144459 -10.335981 -16.212063 45.237247 70.462852 105.778534
[R_mid_hand02]
37 104.070427 2.443552 8.231699 49.067368 -67.749771 39.286453 104.424065
38 104.070427 2.443552 8.231699 49.067368 -67.749771 39.286453 104.424065
[R_mid_hand03]
37 106.028137 -11.221827 -5.996406 -177.101105 15.551026 -76.585571 106.788818
38 106.028137 -11.221827 -5.996406 -177.101105 15.551026 -76.585571 106.788818
[spine02]
37 129.756927 0.001550 0.000119 -0.193155 -4.057449 -5.125116 129.756927
38 129.756927 0.001550 0.000119 0.026404 -4.058306 -8.246119 129.756927
[spine03]
37 78.614021 0.082273 -4.898995 1.565846 3.979650 11.622024 78.766556
38 78.614029 0.082212 -4.898996 1.699657 3.924709 13.567658 78.766571
[pelvis]
37 169.435242 0.051022 0.000000 -0.030175 -0.190233 4.270835 169.435257
38 169.435242 0.051022 0.000000 -0.041278 -0.183797 8.208703 169.435257
[null_rope03_connect]
37 -1.257226 -2.466202 137.391083 173.218719 -88.543312 -86.812149 137.418976
38 -1.257226 -2.466202 137.391083 167.117981 -88.858421 -90.678940 137.418976
[null_rope04_connect]
37 -1.259640 -2.480268 -137.844437 173.218719 -88.543312 -86.812149 137.872513
38 -1.259640 -2.480268 -137.844437 167.117981 -88.858421 -90.678940 137.872513
[Rope3_Seg01]
37 -0.000023 0.000031 0.000222 16.601120 -7.226239 -73.536476 0.000225
38 -0.000024 0.000032 0.000232 17.259039 7.541572 -76.691841 0.000236
[Rope3_Seg02]
37 139.999924 -0.000119 0.000060 0.640052 6.487721 9.922926 139.999924
38 139.999924 -0.000119 0.000060 0.150764 3.124141 6.188236 139.999924
[Rope3_Seg03]
37 139.999924 -0.000119 0.000119 -0.817090 5.130820 14.734468 139.999924
38 139.999924 -0.000119 0.000119 -0.384935 3.070916 9.446833 139.999924
[Rope3_Seg04]
37 139.999924 0.000119 0.000000 0.247221 4.337990 6.607064 139.999924
38 139.999924 0.000119 0.000000 -1.071280 2.586015 8.945947 139.999924
[Rope3_Seg05]
37 139.999924 -0.000238 0.000060 8.990357 9.383853 -21.787693 139.999924
38 139.999924 -0.000238 0.000060 3.970186 2.184393 -15.742087 139.999924
[Rope3_Seg06]
37 139.999893 -0.000119 -0.000060 3.363188 5.310451 -23.988777 139.999893
38 139.999893 -0.000119 -0.000060 1.821050 0.386057 -22.312420 139.999893
[Rope3_Seg07]
37 139.999771 0.000060 -0.000119 0.088366 2.652308 -13.622762 139.999771
38 139.999771 0.000060 -0.000119 -0.385179 0.235982 -11.591887 139.999771
[Rope3_Seg08]
37 139.999985 -0.000060 0.000000 -0.210878 1.262577 -6.691450 139.999985
38 139.999985 -0.000060 0.000000 -0.554520 0.186415 -6.863098 139.999985
[Rope3_Seg09]
37 90.185997 -0.000179 -0.000060 89.793228 -1.359877 -0.847183 90.185997
38 90.185997 -0.000179 -0.000060 89.793228 -1.359877 -0.847183 90.185997
[R_rear_hand01]
37 103.366196 -6.073594 -10.757982 -177.714203 24.565960 -73.910950 104.101845
38 103.366196 -6.073594 -10.757982 -177.714203 24.565960 -73.910950 104.101845
[R_rear_hand02]
37 100.509819 12.039542 -7.992327 -12.874829 36.868488 72.167213 101.543350
38 100.509819 12.039542 -7.992327 -12.874829 36.868488 72.167213 101.543350
[R_rear_hand03]
37 101.539970 5.215704 5.435467 71.484581 -71.816628 21.513813 101.819031
38 101.539970 5.215704 5.435467 71.484581 -71.816628 21.513813 101.819031
[Rope4_Seg01]
37 0.000000 0.000000 0.000000 -97.809410 -7.595742 -109.296082 0.000000
38 0.000000 0.000000 0.000000 -99.227913 5.871904 -108.499046 0.000000
[Rope4_Seg02]
37 139.999985 0.000060 0.000119 -0.976635 -8.192316 7.956934 139.999985
38 139.999985 0.000060 0.000119 -0.630172 -6.813223 3.037001 139.999985
[Rope4_Seg03]
37 139.999924 0.000000 -0.000238 0.288648 -12.897916 4.818281 139.999924
38 139.999924 0.000000 -0.000238 0.147564 -10.549355 1.055906 139.999924
[Rope4_Seg04]
37 139.999985 0.000000 0.000119 1.257891 -4.809433 7.042258 139.999985
38 139.999985 0.000000 0.000119 1.073846 -10.476720 1.795588 139.999985
[Rope4_Seg05]
37 139.999802 -0.000060 -0.000119 1.648919 15.253628 11.032617 139.999802
38 139.999802 -0.000060 -0.000119 2.265013 14.467160 12.799799 139.999802
[Rope4_Seg06]
37 139.999924 0.000000 0.000060 0.136343 7.888578 5.332304 139.999924
38 139.999924 0.000000 0.000060 0.292136 8.990264 6.531952 139.999924
[Rope4_Seg07]
37 139.999802 0.000000 0.000000 -0.194633 3.311581 2.796744 139.999802
38 139.999802 0.000000 0.000000 -0.162098 3.162426 2.852231 139.999802
[Rope4_Seg08]
37 139.999924 0.000000 0.000119 -1.716709 1.935992 1.654672 139.999924
38 139.999924 0.000000 0.000119 -1.688903 1.811780 1.647044 139.999924
[Rope4_Seg09]
37 90.185791 0.000060 0.000060 -135.617828 2.228885 0.850567 90.185791
38 90.185791 0.000060 0.000060 -135.617828 2.228885 0.850567 90.185791
[L_rear_hand01]
37 101.696655 -8.392275 -7.654577 -12.874829 -36.868488 107.832764 102.329041
38 101.696655 -8.392275 -7.654577 -12.874829 -36.868488 107.832764 102.329041
[L_rear_hand02]
37 102.726799 -1.568258 5.773216 71.484581 71.816628 158.486160 102.900848
38 102.726799 -1.568258 5.773216 71.484581 71.816628 158.486160 102.900848
[L_rear_hand03]
37 104.552910 9.721220 -10.420293 -177.714203 -24.565960 -106.089035 105.519653
38 104.552910 9.721220 -10.420293 -177.714203 -24.565960 -106.089035 105.519653
